<svg width="128" height="128" viewBox="0 0 128 128" fill="none" xmlns="http://www.w3.org/2000/svg">
<path d="M64.7066 100.098L59.3736 100.453C57.6737 100.567 56.4293 102.102 56.6702 103.788V103.788C57.4959 109.569 59.4239 115.137 62.3494 120.19L63.1221 121.524C63.5797 122.315 64.7176 122.324 65.1875 121.54L66.1018 120.017C69.2695 114.737 71.0807 108.755 71.3735 102.605V102.605C71.4385 101.24 70.3493 100.098 68.9827 100.098H64.7066Z" fill="#2E2E2E"/>
<path fill-rule="evenodd" clip-rule="evenodd" d="M57.3031 6.83854C50.2978 13.8438 45.2586 22.5687 42.6914 32.1373L41.9253 34.9929C40.9075 38.7864 40.4891 42.7156 40.6853 46.6383L41.1174 55.2804C41.3739 60.4115 39.4476 65.4117 35.8148 69.0445C31.5961 73.2632 29.7156 79.2832 30.7829 85.1532L32.8045 96.272C33.1652 98.2558 35.514 99.1348 37.0885 97.8752L48.4409 88.7933C49.8127 87.6959 51.536 87.1331 53.2911 87.2094L63.5758 87.6566L76.4568 88.1337C78.0102 88.1912 79.507 88.7314 80.7391 89.6792L90.8973 97.4932C92.1769 98.4775 94.0458 97.8751 94.5097 96.3288L96.9422 88.2203C99.0318 81.2551 97.1283 73.7051 91.9863 68.5631C88.2793 64.8561 86.1967 59.8283 86.1967 54.5858L86.1967 45.4971C86.1967 41.2057 85.5345 36.9401 84.2333 32.8508L83.1126 29.3286C79.9368 19.3474 74.4141 10.2732 67.0077 2.86671L66.4992 2.3582C65.1969 1.05598 63.0856 1.05598 61.7834 2.3582L57.3031 6.83854ZM71.4931 49.201C75.241 45.4531 75.241 39.3764 71.4931 35.6284C67.7451 31.8805 61.6684 31.8805 57.9205 35.6285C54.1725 39.3764 54.1725 45.4531 57.9205 49.201C61.6684 52.949 67.7451 52.949 71.4931 49.201Z" fill="#2E2E2E"/>
</svg>
