<svg width="190" height="190" viewBox="0 0 190 190" fill="none" xmlns="http://www.w3.org/2000/svg">
<rect width="190" height="190" rx="10" fill="#2B2A32"/>
<path d="M95.7061 131.098L90.3731 131.453C88.6732 131.567 87.4288 133.102 87.6697 134.788V134.788C88.4955 140.569 90.4234 146.137 93.3489 151.19L94.1216 152.524C94.5792 153.315 95.7171 153.324 96.187 152.54L97.1013 151.017C100.269 145.737 102.08 139.755 102.373 133.605V133.605C102.438 132.24 101.349 131.098 99.9822 131.098H95.7061Z" fill="white"/>
<path fill-rule="evenodd" clip-rule="evenodd" d="M88.3031 37.8376C81.2978 44.8428 76.2586 53.5677 73.6914 63.1363L72.9253 65.992C71.9075 69.7854 71.4891 73.7146 71.6853 77.6373L72.1174 86.2794C72.3739 91.4105 70.4476 96.4107 66.8148 100.044C62.5961 104.262 60.7156 110.282 61.7829 116.152L63.8045 127.271C64.1652 129.255 66.514 130.134 68.0885 128.874L79.4409 119.792C80.8127 118.695 82.536 118.132 84.2911 118.208L94.5758 118.656L107.457 119.133C109.01 119.19 110.507 119.73 111.739 120.678L121.897 128.492C123.177 129.477 125.046 128.874 125.51 127.328L127.942 119.219C130.032 112.254 128.128 104.704 122.986 99.5621C119.279 95.8551 117.197 90.8273 117.197 85.5849L117.197 76.4961C117.197 72.2048 116.534 67.9391 115.233 63.8498L114.113 60.3277C110.937 50.3465 105.414 41.2722 98.0077 33.8657L97.4992 33.3572C96.1969 32.055 94.0856 32.055 92.7834 33.3572L88.3031 37.8376ZM102.493 80.2009C106.241 76.4529 106.241 70.3763 102.493 66.6283C98.7451 62.8804 92.6685 62.8804 88.9205 66.6283C85.1725 70.3763 85.1725 76.453 88.9205 80.2009C92.6685 83.9489 98.7451 83.9489 102.493 80.2009Z" fill="white"/>
</svg>
