<svg width="128" height="128" viewBox="0 0 128 128" fill="none" xmlns="http://www.w3.org/2000/svg">
<path d="M64.7061 100.098L59.3731 100.453C57.6732 100.567 56.4288 102.102 56.6697 103.788V103.788C57.4955 109.569 59.4234 115.137 62.3489 120.19L63.1216 121.524C63.5792 122.315 64.7171 122.324 65.187 121.54L66.1013 120.017C69.2691 114.737 71.0802 108.755 71.373 102.605V102.605C71.438 101.24 70.3488 100.098 68.9822 100.098H64.7061Z" fill="#43414E"/>
<path fill-rule="evenodd" clip-rule="evenodd" d="M57.3031 6.83756C50.2978 13.8428 45.2586 22.5677 42.6914 32.1363L41.9253 34.992C40.9075 38.7854 40.4891 42.7146 40.6853 46.6373L41.1174 55.2794C41.3739 60.4105 39.4476 65.4107 35.8148 69.0436C31.5961 73.2623 29.7156 79.2823 30.7829 85.1522L32.8045 96.271C33.1652 98.2548 35.514 99.1338 37.0885 97.8742L48.4409 88.7924C49.8127 87.6949 51.536 87.1322 53.2911 87.2085L63.5758 87.6556L76.4568 88.1327C78.0102 88.1902 79.507 88.7305 80.7391 89.6782L90.8973 97.4922C92.1769 98.4765 94.0458 97.8741 94.5097 96.3278L96.9422 88.2193C99.0318 81.2542 97.1283 73.7041 91.9863 68.5621C88.2793 64.8551 86.1967 59.8273 86.1967 54.5849L86.1967 45.4961C86.1967 41.2048 85.5345 36.9391 84.2333 32.8498L83.1126 29.3277C79.9368 19.3465 74.4141 10.2722 67.0077 2.86574L66.4992 2.35722C65.1969 1.055 63.0856 1.055 61.7834 2.35722L57.3031 6.83756ZM71.4931 49.2001C75.241 45.4521 75.241 39.3754 71.4931 35.6275C67.7451 31.8795 61.6684 31.8795 57.9205 35.6275C54.1725 39.3754 54.1725 45.4521 57.9205 49.2001C61.6684 52.948 67.7451 52.948 71.4931 49.2001Z" fill="#43414E"/>
</svg>
