<svg width="129" height="28" viewBox="0 0 129 28" fill="none" xmlns="http://www.w3.org/2000/svg">
<path d="M16.6911 19.872C16.6911 21.384 16.3551 22.704 15.6831 23.832C15.0111 24.96 13.9911 25.836 12.6231 26.46C11.2791 27.06 9.57509 27.36 7.51109 27.36C6.55109 27.36 5.66309 27.3 4.84709 27.18C4.03109 27.06 3.26309 26.892 2.54309 26.676C1.82309 26.436 1.10309 26.148 0.383094 25.812V20.736C1.60709 21.264 2.85509 21.756 4.12709 22.212C5.42309 22.644 6.64709 22.86 7.79909 22.86C8.54309 22.86 9.14309 22.74 9.59909 22.5C10.0551 22.26 10.3911 21.936 10.6071 21.528C10.8231 21.12 10.9311 20.652 10.9311 20.124C10.9311 19.476 10.7511 18.924 10.3911 18.468C10.0551 18.012 9.55109 17.592 8.87909 17.208C8.20709 16.8 7.37909 16.392 6.39509 15.984C5.67509 15.672 4.96709 15.312 4.27109 14.904C3.57509 14.496 2.95109 14.004 2.39909 13.428C1.84709 12.828 1.40309 12.108 1.06709 11.268C0.755094 10.428 0.599094 9.42 0.599094 8.244C0.599094 6.708 0.959094 5.4 1.67909 4.32C2.39909 3.216 3.40709 2.376 4.70309 1.8C5.99909 1.224 7.51109 0.935999 9.23909 0.935999C10.6551 0.935999 11.9631 1.092 13.1631 1.404C14.3871 1.716 15.5511 2.16 16.6551 2.736L14.8191 6.984C13.7631 6.504 12.7551 6.132 11.7951 5.868C10.8591 5.604 9.94709 5.472 9.05909 5.472C8.45909 5.472 7.95509 5.58 7.54709 5.796C7.13909 6.012 6.82709 6.312 6.61109 6.696C6.41909 7.08 6.32309 7.536 6.32309 8.064C6.32309 8.664 6.47909 9.18 6.79109 9.612C7.12709 10.02 7.64309 10.428 8.33909 10.836C9.03509 11.22 9.92309 11.688 11.0031 12.24C12.2031 12.84 13.2231 13.476 14.0631 14.148C14.9271 14.796 15.5751 15.576 16.0071 16.488C16.4631 17.4 16.6911 18.528 16.6911 19.872ZM34.8818 27H20.7698V1.296H34.8818V5.76H26.6018V11.412H34.3058V15.876H26.6018V22.5H34.8818V27ZM54.3392 27L52.8632 20.88H44.5472L43.0352 27H36.6992L44.9072 1.188H52.3952L60.6392 27H54.3392ZM49.9112 10.332C49.7672 9.828 49.6232 9.3 49.4792 8.748C49.3352 8.196 49.1912 7.62 49.0472 7.02C48.9272 6.42 48.8072 5.808 48.6872 5.184C48.5912 5.808 48.4712 6.432 48.3272 7.056C48.1832 7.656 48.0392 8.232 47.8952 8.784C47.7752 9.336 47.6432 9.852 47.4992 10.332L45.8432 16.308H51.6032L49.9112 10.332ZM70.9726 1.296C73.1566 1.296 74.9686 1.584 76.4086 2.16C77.8486 2.712 78.9166 3.564 79.6126 4.716C80.3326 5.844 80.6926 7.272 80.6926 9C80.6926 10.176 80.5006 11.208 80.1166 12.096C79.7566 12.96 79.2526 13.704 78.6046 14.328C77.9566 14.928 77.2246 15.42 76.4086 15.804L83.4646 27H76.9486L71.5126 17.136H69.3166V27H63.4846V1.296H70.9726ZM70.7206 5.76H69.3166V12.708H70.7566C71.6446 12.708 72.3886 12.576 72.9886 12.312C73.5886 12.048 74.0446 11.652 74.3566 11.124C74.6686 10.572 74.8246 9.912 74.8246 9.144C74.8246 8.328 74.6806 7.68 74.3926 7.2C74.1046 6.696 73.6606 6.336 73.0606 6.12C72.4606 5.88 71.6806 5.76 70.7206 5.76ZM96.5661 5.472C95.7021 5.472 94.9221 5.676 94.2261 6.084C93.5541 6.492 92.9781 7.08 92.4981 7.848C92.0181 8.592 91.6581 9.504 91.4181 10.584C91.1781 11.664 91.0581 12.876 91.0581 14.22C91.0581 16.044 91.2621 17.604 91.6701 18.9C92.0781 20.172 92.7021 21.144 93.5421 21.816C94.3821 22.488 95.4501 22.824 96.7461 22.824C97.7781 22.824 98.7861 22.704 99.7701 22.464C100.778 22.224 101.822 21.888 102.902 21.456V26.028C101.846 26.484 100.778 26.82 99.6981 27.036C98.6181 27.252 97.4421 27.36 96.1701 27.36C93.6021 27.36 91.5021 26.82 89.8701 25.74C88.2381 24.636 87.0261 23.1 86.2341 21.132C85.4661 19.14 85.0821 16.824 85.0821 14.184C85.0821 12.24 85.3341 10.464 85.8381 8.856C86.3421 7.224 87.0861 5.82 88.0701 4.644C89.0541 3.468 90.2541 2.556 91.6701 1.908C93.1101 1.26 94.7541 0.935999 96.6021 0.935999C97.8021 0.935999 99.0621 1.104 100.382 1.44C101.726 1.752 102.89 2.184 103.874 2.736L102.038 7.164C101.15 6.708 100.25 6.312 99.3381 5.976C98.4501 5.64 97.5261 5.472 96.5661 5.472ZM128.085 27H122.217V15.912H113.649V27H107.817V1.296H113.649V11.376H122.217V1.296H128.085V27Z" fill="#43414E"/>
</svg>
